# xmcd CD database file
#
# Track frame offsets:
#	150
#	19020
#	36684
#	55470
#	73935
#	95235
#	111779
#	133263
#	151889
#	176177
#	200656
#	219184
#	236566
#	256117
#
# Disc length: 3724 seconds
#
# Revision: 6
# Processed by: cddbd v1.5.2PL0 Copyright (c) Steve Scherf et al.
# Submitted via: CDex 1.70beta3
#
DISCID=d60e8a0e
DTITLE=I've - SHORT CIRCUIT Ⅲ
DYEAR=2010
DGENRE=Game
TTITLE0=KOTOKO - blossomdays
TTITLE1=KOTOKO - らずべりー
TTITLE2=KOTOKO to 詩月カオリ - Crash Course ～恋の特別レッスン～
TTITLE3=詩月カオリ - Love is money?!
TTITLE4=詩月カオリ - I need magic ～解けないマジ☆キュン♪～
TTITLE5=KOTOKO - お*ま*ま*ご*と
TTITLE6=KOTOKO - Stars Biscuit
TTITLE7=KOTOKO - Swift Love ～健全男子にモノ申す～
TTITLE8=KOTOKO - ジェットスマッシュ！
TTITLE9=KOTOKO - Lilies line
TTITLE10=KOTOKO - ユメミボシ★boom!boom!
TTITLE11=KOTOKO - 常識！ バトラー行進曲
TTITLE12=Larval Stage Planning - Send-off ～涙色のスタートライン～
TTITLE13=KOTOKO to 詩月カオリ - ☆星空 Interceptor☆
EXTD=YEAR: 2010
EXTT0=
EXTT1=
EXTT2=
EXTT3=
EXTT4=
EXTT5=
EXTT6=
EXTT7=
EXTT8=
EXTT9=
EXTT10=
EXTT11=
EXTT12=
EXTT13=
PLAYORDER=
